<svg width="21" height="21" viewBox="0 0 21 21" fill="none" xmlns="http://www.w3.org/2000/svg">
    <path
        d="M17.818 12H13.943C13.4295 12 12.9369 12.2034 12.573 12.5656C12.209 12.9279 12.0034 13.4195 12.001 13.933V17.808C12.001 18.3231 12.2056 18.817 12.5698 19.1812C12.934 19.5454 13.4279 19.75 13.943 19.75H17.818C18.3313 19.7474 18.8227 19.5416 19.1847 19.1777C19.5468 18.8138 19.75 18.3213 19.75 17.808V13.933C19.75 13.4206 19.5464 12.9292 19.1841 12.5669C18.8218 12.2045 18.3304 12.001 17.818 12.001M7.057 12H3.182C2.66859 12.0029 2.1772 12.2089 1.8152 12.573C1.45319 12.937 1.24999 13.4296 1.25 13.943V17.818C1.25 18.3304 1.45355 18.8218 1.81587 19.1841C2.17819 19.5464 2.6696 19.75 3.182 19.75H7.057C7.57032 19.75 8.06277 19.5468 8.42668 19.1847C8.79059 18.8227 8.99636 18.3313 8.999 17.818V13.943C8.999 13.4279 8.7944 12.934 8.4302 12.5698C8.06601 12.2056 7.57205 12.001 7.057 12.001M7.057 1.25H3.182C2.92829 1.25 2.67706 1.29997 2.44266 1.39706C2.20825 1.49416 1.99527 1.63647 1.81587 1.81587C1.63647 1.99527 1.49416 2.20825 1.39706 2.44266C1.29997 2.67706 1.25 2.92829 1.25 3.182V7.057C1.24999 7.57032 1.45322 8.06277 1.81526 8.42668C2.17729 8.79059 2.66868 8.99636 3.182 8.999H7.057C7.57205 8.999 8.06601 8.7944 8.4302 8.4302C8.7944 8.06601 8.999 7.57205 8.999 7.057V3.182C8.99636 2.66868 8.79059 2.17729 8.42668 1.81526C8.06277 1.45322 7.57032 1.24999 7.057 1.25ZM17.818 1.25H13.943C13.4297 1.24999 12.9372 1.45322 12.5733 1.81526C12.2094 2.17729 12.0036 2.66868 12.001 3.182V7.057C12.0013 7.57197 12.206 8.06577 12.5701 8.42991C12.9342 8.79405 13.428 8.99873 13.943 8.999H17.818C18.3313 8.99636 18.8227 8.79059 19.1847 8.42668C19.5468 8.06277 19.75 7.57032 19.75 7.057V3.182C19.75 2.6696 19.5464 2.17819 19.1841 1.81587C18.8218 1.45355 18.3304 1.25 17.818 1.25Z"
        stroke="#252525" stroke-width="2" stroke-linecap="round" stroke-linejoin="round" />
</svg>
    