<svg width="33" height="32" viewBox="0 0 33 32" fill="none" xmlns="http://www.w3.org/2000/svg">
    <path
        d="M16.5 20C16.5 21.0609 16.9214 22.0783 17.6716 22.8284C18.4217 23.5786 19.4391 24 20.5 24C21.5609 24 22.5783 23.5786 23.3284 22.8284C24.0786 22.0783 24.5 21.0609 24.5 20C24.5 18.9391 24.0786 17.9217 23.3284 17.1716C22.5783 16.4214 21.5609 16 20.5 16C19.4391 16 18.4217 16.4214 17.6716 17.1716C16.9214 17.9217 16.5 18.9391 16.5 20Z"
        stroke="white" stroke-width="2.66667" stroke-linecap="round" stroke-linejoin="round" />
    <path d="M17.8333 23.3333V29.3333L20.5 27.3333L23.1666 29.3333V23.3333" stroke="white"
        stroke-width="2.66667" stroke-linecap="round" stroke-linejoin="round" />
    <path
        d="M13.8333 25.3334H7.16667C6.45942 25.3334 5.78115 25.0525 5.28105 24.5524C4.78095 24.0523 4.5 23.374 4.5 22.6667V9.33341C4.5 7.86675 5.7 6.66675 7.16667 6.66675H25.8333C26.5406 6.66675 27.2189 6.9477 27.719 7.4478C28.219 7.94789 28.5 8.62617 28.5 9.33341V22.6667C28.4995 23.1344 28.3761 23.5937 28.1421 23.9985C27.908 24.4034 27.5717 24.7396 27.1667 24.9734M8.5 12.0001H24.5M8.5 16.0001H12.5M8.5 20.0001H11.1667"
        stroke="white" stroke-width="2.66667" stroke-linecap="round" stroke-linejoin="round" />
</svg>
    