<svg width="14" height="9" viewBox="0 0 14 9" fill="none" xmlns="http://www.w3.org/2000/svg">
    <path fill-rule="evenodd" clip-rule="evenodd" d="M7.70701 8.20701C7.51948 8.39448 7.26517 8.49979 7.00001 8.49979C6.73484 8.49979 6.48054 8.39448 6.29301 8.20701L0.636007 2.55001C0.540497 2.45776 0.464315 2.34742 0.411906 2.22541C0.359497 2.10341 0.331911 1.97219 0.330757 1.83941C0.329603 1.70663 0.354905 1.57495 0.405186 1.45205C0.455467 1.32916 0.52972 1.2175 0.623612 1.12361C0.717505 1.02972 0.829157 0.955466 0.952053 0.905185C1.07495 0.854904 1.20663 0.829603 1.33941 0.830757C1.47219 0.831911 1.60341 0.859497 1.72541 0.911906C1.84742 0.964315 1.95776 1.0405 2.05001 1.13601L7.00001 6.08601L11.95 1.13601C12.1386 0.953849 12.3912 0.853055 12.6534 0.855333C12.9156 0.857611 13.1664 0.96278 13.3518 1.14819C13.5372 1.3336 13.6424 1.58441 13.6447 1.84661C13.647 2.1088 13.5462 2.36141 13.364 2.55001L7.70701 8.20701Z" fill="white"/>
    </svg>
    