<svg width="23" height="28" viewBox="0 0 23 28" fill="none" xmlns="http://www.w3.org/2000/svg">
    <path fill-rule="evenodd" clip-rule="evenodd"
        d="M15.5 0.666748C15.9681 0.66676 16.4279 0.789982 16.8333 1.02403C17.2387 1.25808 17.5753 1.59471 17.8093 2.00008H19.5C20.2072 2.00008 20.8855 2.28103 21.3856 2.78113C21.8857 3.28123 22.1667 3.9595 22.1667 4.66675V20.6667C22.1667 22.4349 21.4643 24.1306 20.214 25.3808C18.9638 26.631 17.2681 27.3334 15.5 27.3334H3.49999C2.79275 27.3334 2.11447 27.0525 1.61438 26.5524C1.11428 26.0523 0.833328 25.374 0.833328 24.6667V4.66675C0.833328 3.9595 1.11428 3.28123 1.61438 2.78113C2.11447 2.28103 2.79275 2.00008 3.49999 2.00008H5.19066C5.42471 1.59471 5.76133 1.25808 6.1667 1.02403C6.57207 0.789982 7.03191 0.66676 7.5 0.666748H15.5ZM4.83333 4.66675H3.49999V24.6667H15.5C16.5609 24.6667 17.5783 24.2453 18.3284 23.4952C19.0786 22.745 19.5 21.7276 19.5 20.6667V4.66675H18.1667C18.1667 5.37399 17.8857 6.05227 17.3856 6.55237C16.8855 7.05246 16.2072 7.33341 15.5 7.33341H7.5C6.79275 7.33341 6.11447 7.05246 5.61438 6.55237C5.11428 6.05227 4.83333 5.37399 4.83333 4.66675ZM17.1507 10.5054C17.4006 10.7555 17.541 11.0945 17.541 11.4481C17.541 11.8016 17.4006 12.1407 17.1507 12.3907L10.5507 18.9907C10.3006 19.2407 9.96155 19.3811 9.608 19.3811C9.25444 19.3811 8.91536 19.2407 8.66533 18.9907L5.83866 16.1614C5.60161 15.909 5.47207 15.5742 5.47744 15.228C5.48282 14.8817 5.6227 14.5512 5.86747 14.3062C6.11225 14.0613 6.44272 13.9211 6.78897 13.9155C7.13521 13.9099 7.47006 14.0392 7.72266 14.2761L9.60933 16.1614L15.2653 10.5054C15.5154 10.2555 15.8544 10.115 16.208 10.115C16.5615 10.115 16.9006 10.2555 17.1507 10.5054ZM15.5 3.33341H7.5V4.66675H15.5V3.33341Z"
        fill="white" />
</svg>
    