<svg width="166" height="37" viewBox="0 0 166 37" fill="none" xmlns="http://www.w3.org/2000/svg">
    <path
        d="M164.323 31.1438C164.858 31.0033 165.177 30.4564 165.036 29.9223L162.746 21.2185C162.606 20.6844 162.059 20.3653 161.525 20.5058C160.991 20.6463 160.672 21.1932 160.812 21.7273L162.848 29.4641L155.111 31.4995C154.577 31.64 154.258 32.1869 154.398 32.721C154.539 33.2551 155.086 33.5742 155.62 33.4337L164.323 31.1438ZM1.66101 36.4404C2.20773 36.0299 2.75241 35.6232 3.29508 35.2202L2.10281 33.6145C1.55722 34.0196 1.00968 34.4284 0.460149 34.841L1.66101 36.4404ZM6.5275 32.848C7.63061 32.0481 8.72557 31.2643 9.81277 30.4965L8.65904 28.8628C7.56481 29.6356 6.46307 30.4243 5.35346 31.2288L6.5275 32.848ZM13.0964 28.2103C14.2179 27.4409 15.3314 26.6889 16.4372 25.9544L15.3306 24.2884C14.2162 25.0287 13.0944 25.7862 11.9649 26.5611L13.0964 28.2103ZM19.8057 23.756C20.9409 23.0285 22.0682 22.32 23.1883 21.6302L22.1395 19.9272C21.009 20.6235 19.8715 21.3384 18.7266 22.0721L19.8057 23.756ZM26.6403 19.5504C27.8087 18.8623 28.9695 18.1953 30.1231 17.5491L29.1458 15.8042C27.9792 16.4576 26.8059 17.1319 25.6255 17.827L26.6403 19.5504ZM33.6341 15.6358C34.8292 15.003 36.0171 14.393 37.1986 13.8059L36.3085 12.0149C35.1112 12.6099 33.908 13.2277 32.6982 13.8683L33.6341 15.6358ZM40.8196 12.0688C42.0453 11.5023 43.2645 10.9608 44.478 10.4442L43.6947 8.604C42.4619 9.12879 41.224 9.67858 39.9805 10.2534L40.8196 12.0688ZM48.1778 8.93999C49.4313 8.4546 50.6796 7.99616 51.9234 7.56456L51.2678 5.67508C50.001 6.11462 48.7306 6.58122 47.4556 7.07494L48.1778 8.93999ZM55.7303 6.32341C57.0154 5.93164 58.2967 5.56876 59.5753 5.23463L59.0696 3.29961C57.7645 3.64066 56.4573 4.01089 55.1471 4.41035L55.7303 6.32341ZM63.4566 4.30697C64.7629 4.02407 66.0674 3.77125 67.3713 3.5484L67.0344 1.57698C65.7012 1.80484 64.3679 2.06325 63.0333 2.35229L63.4566 4.30697ZM71.3148 2.96552C72.6361 2.80078 73.958 2.66668 75.2816 2.56312L75.1255 0.569211C73.7714 0.675169 72.419 0.812363 71.0674 0.980885L71.3148 2.96552ZM79.264 2.34377C80.5896 2.30134 81.9182 2.28924 83.2508 2.30737L83.278 0.307555C81.9152 0.289013 80.5562 0.301389 79.2 0.344792L79.264 2.34377ZM87.2349 2.45082C88.5548 2.52766 89.8797 2.63369 91.2107 2.76883L91.4127 0.779064C90.0536 0.641063 88.7001 0.532735 87.3512 0.454201L87.2349 2.45082ZM95.1733 3.25439C96.4815 3.44183 97.7965 3.6568 99.1194 3.89925L99.48 1.93202C98.1321 1.68499 96.7914 1.46581 95.457 1.27461L95.1733 3.25439ZM103.045 4.69397C104.33 4.9784 105.623 5.2881 106.925 5.62302L107.423 3.68606C106.1 3.34566 104.785 3.03068 103.477 2.74123L103.045 4.69397ZM110.779 6.68C112.046 7.04882 113.323 7.44083 114.609 7.856L115.223 5.95269C113.919 5.53176 112.624 5.13406 111.338 4.75966L110.779 6.68ZM118.419 9.14297C119.661 9.58086 120.912 10.0397 122.174 10.5193L122.885 8.64984C121.608 8.16461 120.342 7.70023 119.084 7.25676L118.419 9.14297ZM125.9 11.9841C127.127 12.4822 128.364 12.9994 129.612 13.5357L130.402 11.6982C129.142 11.1568 127.892 10.6343 126.652 10.1309L125.9 11.9841ZM133.289 15.1573C134.49 15.7002 135.701 16.26 136.922 16.8369L137.776 15.0285C136.546 14.447 135.324 13.8824 134.113 13.3348L133.289 15.1573ZM140.554 18.5875C141.742 19.1709 142.939 19.7699 144.146 20.3843L145.053 18.6018C143.838 17.9833 142.632 17.3802 141.436 16.7925L140.554 18.5875ZM147.71 22.2269C148.893 22.8477 150.085 23.4827 151.287 24.132L152.238 22.3722C151.028 21.7193 149.829 21.0806 148.64 20.4561L147.71 22.2269ZM154.79 26.0477C155.955 26.6925 157.13 27.3503 158.314 28.021L159.3 26.2807C158.11 25.6069 156.93 24.946 155.759 24.2979L154.79 26.0477ZM161.8 30.0157C162.386 30.3542 162.974 30.6958 163.565 31.0405L164.573 29.313C163.98 28.967 163.389 28.624 162.801 28.2841L161.8 30.0157ZM164.323 31.1438C164.858 31.0033 165.177 30.4564 165.036 29.9223L162.746 21.2185C162.606 20.6844 162.059 20.3653 161.525 20.5058C160.991 20.6463 160.672 21.1932 160.812 21.7273L162.848 29.4641L155.111 31.4995C154.577 31.64 154.258 32.1869 154.398 32.721C154.539 33.2551 155.086 33.5742 155.62 33.4337L164.323 31.1438ZM1.66101 36.4404C2.20773 36.0299 2.75241 35.6232 3.29508 35.2202L2.10281 33.6145C1.55722 34.0196 1.00968 34.4284 0.460149 34.841L1.66101 36.4404ZM6.5275 32.848C7.63061 32.0481 8.72557 31.2643 9.81277 30.4965L8.65904 28.8628C7.56481 29.6356 6.46307 30.4243 5.35346 31.2288L6.5275 32.848ZM13.0964 28.2103C14.2179 27.4409 15.3314 26.6889 16.4372 25.9544L15.3306 24.2884C14.2162 25.0287 13.0944 25.7862 11.9649 26.5611L13.0964 28.2103ZM19.8057 23.756C20.9409 23.0285 22.0682 22.32 23.1883 21.6302L22.1395 19.9272C21.009 20.6235 19.8715 21.3384 18.7266 22.0721L19.8057 23.756ZM26.6403 19.5504C27.8087 18.8623 28.9695 18.1953 30.1231 17.5491L29.1458 15.8042C27.9792 16.4576 26.8059 17.1319 25.6255 17.827L26.6403 19.5504ZM33.6341 15.6358C34.8292 15.003 36.0171 14.393 37.1986 13.8059L36.3085 12.0149C35.1112 12.6099 33.908 13.2277 32.6982 13.8683L33.6341 15.6358ZM40.8196 12.0688C42.0453 11.5023 43.2645 10.9608 44.478 10.4442L43.6947 8.604C42.4619 9.12879 41.224 9.67858 39.9805 10.2534L40.8196 12.0688ZM48.1778 8.93999C49.4313 8.4546 50.6796 7.99616 51.9234 7.56456L51.2678 5.67508C50.001 6.11462 48.7306 6.58122 47.4556 7.07494L48.1778 8.93999ZM55.7303 6.32341C57.0154 5.93164 58.2967 5.56876 59.5753 5.23463L59.0696 3.29961C57.7645 3.64066 56.4573 4.01089 55.1471 4.41035L55.7303 6.32341ZM63.4566 4.30697C64.7629 4.02407 66.0674 3.77125 67.3713 3.5484L67.0344 1.57698C65.7012 1.80484 64.3679 2.06325 63.0333 2.35229L63.4566 4.30697ZM71.3148 2.96552C72.6361 2.80078 73.958 2.66668 75.2816 2.56312L75.1255 0.569211C73.7714 0.675169 72.419 0.812363 71.0674 0.980885L71.3148 2.96552ZM79.264 2.34377C80.5896 2.30134 81.9182 2.28924 83.2508 2.30737L83.278 0.307555C81.9152 0.289013 80.5562 0.301389 79.2 0.344792L79.264 2.34377ZM87.2349 2.45082C88.5548 2.52766 89.8797 2.63369 91.2107 2.76883L91.4127 0.779064C90.0536 0.641063 88.7001 0.532735 87.3512 0.454201L87.2349 2.45082ZM95.1733 3.25439C96.4815 3.44183 97.7965 3.6568 99.1194 3.89925L99.48 1.93202C98.1321 1.68499 96.7914 1.46581 95.457 1.27461L95.1733 3.25439ZM103.045 4.69397C104.33 4.9784 105.623 5.2881 106.925 5.62302L107.423 3.68606C106.1 3.34566 104.785 3.03068 103.477 2.74123L103.045 4.69397ZM110.779 6.68C112.046 7.04882 113.323 7.44083 114.609 7.856L115.223 5.95269C113.919 5.53176 112.624 5.13406 111.338 4.75966L110.779 6.68ZM118.419 9.14297C119.661 9.58086 120.912 10.0397 122.174 10.5193L122.885 8.64984C121.608 8.16461 120.342 7.70023 119.084 7.25676L118.419 9.14297ZM125.9 11.9841C127.127 12.4822 128.364 12.9994 129.612 13.5357L130.402 11.6982C129.142 11.1568 127.892 10.6343 126.652 10.1309L125.9 11.9841ZM133.289 15.1573C134.49 15.7002 135.701 16.26 136.922 16.8369L137.776 15.0285C136.546 14.447 135.324 13.8824 134.113 13.3348L133.289 15.1573ZM140.554 18.5875C141.742 19.1709 142.939 19.7699 144.146 20.3843L145.053 18.6018C143.838 17.9833 142.632 17.3802 141.436 16.7925L140.554 18.5875ZM147.71 22.2269C148.893 22.8477 150.085 23.4827 151.287 24.132L152.238 22.3722C151.028 21.7193 149.829 21.0806 148.64 20.4561L147.71 22.2269ZM154.79 26.0477C155.955 26.6925 157.13 27.3503 158.314 28.021L159.3 26.2807C158.11 25.6069 156.93 24.946 155.759 24.2979L154.79 26.0477ZM161.8 30.0157C162.386 30.3542 162.974 30.6958 163.565 31.0405L164.573 29.313C163.98 28.967 163.389 28.624 162.801 28.2841L161.8 30.0157Z"
        fill="#BDBDBD" />
</svg>
    