<svg width="14" height="14" viewBox="0 0 14 14" fill="none" xmlns="http://www.w3.org/2000/svg">
<path d="M4.20001 0.333496H9.80001C11.9333 0.333496 13.6667 2.06683 13.6667 4.20016V9.80016C13.6667 10.8257 13.2593 11.8092 12.5342 12.5343C11.809 13.2594 10.8255 13.6668 9.80001 13.6668H4.20001C2.06668 13.6668 0.333344 11.9335 0.333344 9.80016V4.20016C0.333344 3.17466 0.740723 2.19116 1.46586 1.46602C2.191 0.740876 3.17451 0.333496 4.20001 0.333496ZM4.06668 1.66683C3.43016 1.66683 2.81971 1.91969 2.36962 2.36977C1.91953 2.81986 1.66668 3.43031 1.66668 4.06683V9.9335C1.66668 11.2602 2.74001 12.3335 4.06668 12.3335H9.93334C10.5699 12.3335 11.1803 12.0806 11.6304 11.6306C12.0805 11.1805 12.3333 10.57 12.3333 9.9335V4.06683C12.3333 2.74016 11.26 1.66683 9.93334 1.66683H4.06668ZM10.5 2.66683C10.721 2.66683 10.933 2.75463 11.0893 2.91091C11.2455 3.06719 11.3333 3.27915 11.3333 3.50016C11.3333 3.72118 11.2455 3.93314 11.0893 4.08942C10.933 4.2457 10.721 4.3335 10.5 4.3335C10.279 4.3335 10.067 4.2457 9.91075 4.08942C9.75447 3.93314 9.66668 3.72118 9.66668 3.50016C9.66668 3.27915 9.75447 3.06719 9.91075 2.91091C10.067 2.75463 10.279 2.66683 10.5 2.66683ZM7.00001 3.66683C7.88407 3.66683 8.73191 4.01802 9.35703 4.64314C9.98215 5.26826 10.3333 6.11611 10.3333 7.00016C10.3333 7.88422 9.98215 8.73206 9.35703 9.35719C8.73191 9.98231 7.88407 10.3335 7.00001 10.3335C6.11596 10.3335 5.26811 9.98231 4.64299 9.35719C4.01787 8.73206 3.66668 7.88422 3.66668 7.00016C3.66668 6.11611 4.01787 5.26826 4.64299 4.64314C5.26811 4.01802 6.11596 3.66683 7.00001 3.66683ZM7.00001 5.00016C6.46958 5.00016 5.96087 5.21088 5.5858 5.58595C5.21072 5.96102 5.00001 6.46973 5.00001 7.00016C5.00001 7.5306 5.21072 8.0393 5.5858 8.41438C5.96087 8.78945 6.46958 9.00016 7.00001 9.00016C7.53044 9.00016 8.03915 8.78945 8.41422 8.41438C8.7893 8.0393 9.00001 7.5306 9.00001 7.00016C9.00001 6.46973 8.7893 5.96102 8.41422 5.58595C8.03915 5.21088 7.53044 5.00016 7.00001 5.00016Z" fill="#918B8B"/>
</svg>
