<svg width="14" height="12" viewBox="0 0 14 12" fill="none" xmlns="http://www.w3.org/2000/svg">
    <path d="M3.62663 1.33351C3.62645 1.68713 3.48581 2.0262 3.23563 2.27613C2.98546 2.52605 2.64625 2.66636 2.29263 2.66618C1.93901 2.666 1.59994 2.52536 1.35001 2.27518C1.10009 2.02501 0.959784 1.6858 0.959961 1.33218C0.960138 0.978557 1.10078 0.639488 1.35096 0.389565C1.60113 0.139641 1.94034 -0.000664925 2.29396 -0.000488114C2.64758 -0.000311303 2.98665 0.140334 3.23658 0.390508C3.4865 0.640681 3.6268 0.97989 3.62663 1.33351ZM3.66663 3.65351H0.999961V12.0002H3.66663V3.65351ZM7.87996 3.65351H5.22663V12.0002H7.85329V7.62018C7.85329 5.18018 11.0333 4.95351 11.0333 7.62018V12.0002H13.6666V6.71351C13.6666 2.60018 8.95996 2.75351 7.85329 4.77351L7.87996 3.65351Z" fill="#918B8B"/>
    </svg>
    