<svg width="24" height="24" viewBox="0 0 24 24" fill="none" xmlns="http://www.w3.org/2000/svg">
    <path
        d="M12 12C10.9 12 9.95833 11.6083 9.175 10.825C8.39167 10.0417 8 9.1 8 8C8 6.9 8.39167 5.95833 9.175 5.175C9.95833 4.39167 10.9 4 12 4C13.1 4 14.0417 4.39167 14.825 5.175C15.6083 5.95833 16 6.9 16 8C16 9.1 15.6083 10.0417 14.825 10.825C14.0417 11.6083 13.1 12 12 12ZM16 20V13.6C16.4167 13.7333 16.825 13.875 17.225 14.025C17.625 14.175 18.0167 14.35 18.4 14.55C18.9 14.8 19.2917 15.1627 19.575 15.638C19.8583 16.1133 20 16.634 20 17.2V20H16ZM10 16.5V13.15C10.3333 13.1 10.6667 13.0627 11 13.038C11.3333 13.0133 11.6667 13.0007 12 13C12.3333 13 12.6667 13.0127 13 13.038C13.3333 13.0633 13.6667 13.1007 14 13.15V16.5H10ZM4 20V17.2C4 16.6333 4.14167 16.1127 4.425 15.638C4.70833 15.1633 5.1 14.8007 5.6 14.55C5.98333 14.35 6.375 14.175 6.775 14.025C7.175 13.875 7.58333 13.7333 8 13.6V20H4Z"
        fill="white" />
</svg>
    