<svg width="42" height="42" viewBox="0 0 42 42" fill="none" xmlns="http://www.w3.org/2000/svg">
    <path d="M38.0625 21H31.5V15.75C31.5 12.8543 33.8543 10.5 36.75 10.5H37.4062C38.4973 10.5 39.375 9.62227 39.375 8.53125V4.59375C39.375 3.50273 38.4973 2.625 37.4062 2.625H36.75C29.4984 2.625 23.625 8.49844 23.625 15.75V35.4375C23.625 37.6113 25.3887 39.375 27.5625 39.375H38.0625C40.2363 39.375 42 37.6113 42 35.4375V24.9375C42 22.7637 40.2363 21 38.0625 21ZM14.4375 21H7.875V15.75C7.875 12.8543 10.2293 10.5 13.125 10.5H13.7812C14.8723 10.5 15.75 9.62227 15.75 8.53125V4.59375C15.75 3.50273 14.8723 2.625 13.7812 2.625H13.125C5.87344 2.625 0 8.49844 0 15.75V35.4375C0 37.6113 1.76367 39.375 3.9375 39.375H14.4375C16.6113 39.375 18.375 37.6113 18.375 35.4375V24.9375C18.375 22.7637 16.6113 21 14.4375 21Z" fill="#029FF7"/>
    </svg>
    