<svg width="80" height="16" viewBox="0 0 80 16" fill="none" xmlns="http://www.w3.org/2000/svg">
    <path
        d="M8.00001 11.5133L12.12 13.9999L11.0267 9.31325L14.6667 6.15992L9.87334 5.75325L8.00001 1.33325L6.12668 5.75325L1.33334 6.15992L4.97334 9.31325L3.88001 13.9999L8.00001 11.5133Z"
        fill="#FFE601" />
    <path
        d="M24 11.5133L28.12 13.9999L27.0267 9.31325L30.6667 6.15992L25.8733 5.75325L24 1.33325L22.1267 5.75325L17.3333 6.15992L20.9733 9.31325L19.88 13.9999L24 11.5133Z"
        fill="#FFE601" />
    <path
        d="M40 11.5133L44.12 13.9999L43.0267 9.31325L46.6667 6.15992L41.8733 5.75325L40 1.33325L38.1267 5.75325L33.3333 6.15992L36.9733 9.31325L35.88 13.9999L40 11.5133Z"
        fill="#FFE601" />
    <path
        d="M56 11.5133L60.12 13.9999L59.0267 9.31325L62.6667 6.15992L57.8733 5.75325L56 1.33325L54.1267 5.75325L49.3333 6.15992L52.9733 9.31325L51.88 13.9999L56 11.5133Z"
        fill="#FFE601" />
    <path
        d="M72 11.5133L76.12 13.9999L75.0267 9.31325L78.6667 6.15992L73.8733 5.75325L72 1.33325L70.1267 5.75325L65.3333 6.15992L68.9733 9.31325L67.88 13.9999L72 11.5133Z"
        fill="#FFE601" />
</svg>
    