<svg width="33" height="32" viewBox="0 0 33 32" fill="none" xmlns="http://www.w3.org/2000/svg">
    <path
        d="M26.6333 28L18.2333 19.6C17.5667 20.1333 16.8 20.5556 15.9333 20.8667C15.0667 21.1778 14.1444 21.3333 13.1667 21.3333C10.7444 21.3333 8.69467 20.4942 7.01733 18.816C5.34 17.1378 4.50089 15.088 4.5 12.6667C4.49911 10.2453 5.33822 8.19556 7.01733 6.51733C8.69645 4.83911 10.7462 4 13.1667 4C15.5871 4 17.6373 4.83911 19.3173 6.51733C20.9973 8.19556 21.836 10.2453 21.8333 12.6667C21.8333 13.6444 21.6778 14.5667 21.3667 15.4333C21.0556 16.3 20.6333 17.0667 20.1 17.7333L28.5 26.1333L26.6333 28ZM13.1667 18.6667C14.8333 18.6667 16.2502 18.0836 17.4173 16.9173C18.5844 15.7511 19.1676 14.3342 19.1667 12.6667C19.1658 10.9991 18.5827 9.58267 17.4173 8.41733C16.252 7.252 14.8351 6.66844 13.1667 6.66667C11.4982 6.66489 10.0818 7.24844 8.91733 8.41733C7.75289 9.58622 7.16933 11.0027 7.16667 12.6667C7.164 14.3307 7.74756 15.7476 8.91733 16.9173C10.0871 18.0871 11.5036 18.6702 13.1667 18.6667Z"
        fill="white" />
</svg>
    